<svg width="81" height="80" viewBox="0 0 81 80" fill="none" xmlns="http://www.w3.org/2000/svg">
<path d="M79 40C79 60.9635 61.7865 78 40.5 78C19.2135 78 2 60.9635 2 40C2 19.0365 19.2135 2 40.5 2C61.7865 2 79 19.0365 79 40Z" fill="#3C7545" stroke="white" stroke-width="4"/>
<path d="M22.8334 21.8333H58.1667C60.5959 21.8333 62.5834 23.8208 62.5834 26.2499V52.7499C62.5834 55.1791 60.5959 57.1666 58.1667 57.1666H22.8334C20.4042 57.1666 18.4167 55.1791 18.4167 52.7499V26.2499C18.4167 23.8208 20.4042 21.8333 22.8334 21.8333Z" stroke="white" stroke-width="2" stroke-linecap="round" stroke-linejoin="round"/>
<path d="M62.5834 26.25L40.5 41.7083L18.4167 26.25" stroke="white" stroke-width="2" stroke-linecap="round" stroke-linejoin="round"/>
</svg>
