<svg width="81" height="80" viewBox="0 0 81 80" fill="none" xmlns="http://www.w3.org/2000/svg">
<path d="M79 40C79 60.9635 61.7865 78 40.5 78C19.2135 78 2 60.9635 2 40C2 19.0365 19.2135 2 40.5 2C61.7865 2 79 19.0365 79 40Z" fill="#3C7545" stroke="white" stroke-width="4"/>
<path d="M53.75 17.4167H47.125C44.1965 17.4167 41.3881 18.5801 39.3173 20.6508C37.2466 22.7215 36.0833 25.53 36.0833 28.4584V35.0834H29.4583V43.9167H36.0833V61.5834H44.9166V43.9167H51.5416L53.75 35.0834H44.9166V28.4584C44.9166 27.8727 45.1493 27.311 45.5635 26.8969C45.9776 26.4827 46.5393 26.2501 47.125 26.2501H53.75V17.4167Z" stroke="white" stroke-width="2" stroke-linecap="round" stroke-linejoin="round"/>
</svg>
