<svg width="81" height="80" viewBox="0 0 81 80" fill="none" xmlns="http://www.w3.org/2000/svg">
<path d="M79 40C79 60.9635 61.7865 78 40.5 78C19.2135 78 2 60.9635 2 40C2 19.0365 19.2135 2 40.5 2C61.7865 2 79 19.0365 79 40Z" fill="#3C7545" stroke="white" stroke-width="4"/>
<path d="M52.5417 17.4167H30.4584C24.3602 17.4167 19.4167 22.3603 19.4167 28.4584V50.5418C19.4167 56.6399 24.3602 61.5834 30.4584 61.5834H52.5417C58.6398 61.5834 63.5834 56.6399 63.5834 50.5418V28.4584C63.5834 22.3603 58.6398 17.4167 52.5417 17.4167Z" stroke="white" stroke-width="2" stroke-linecap="round" stroke-linejoin="round"/>
<path d="M50.3333 38.1087C50.6059 39.9466 50.292 41.8236 49.4362 43.4728C48.5805 45.1219 47.2265 46.4593 45.5669 47.2946C43.9073 48.13 42.0266 48.4207 40.1922 48.1255C38.3578 47.8304 36.6632 46.9643 35.3494 45.6505C34.0357 44.3367 33.1696 42.6421 32.8744 40.8077C32.5792 38.9734 32.87 37.0926 33.7053 35.433C34.5406 33.7734 35.878 32.4194 37.5272 31.5637C39.1764 30.708 41.0534 30.3941 42.8913 30.6666C44.766 30.9446 46.5016 31.8182 47.8417 33.1583C49.1818 34.4984 50.0553 36.234 50.3333 38.1087Z" stroke="white" stroke-width="2" stroke-linecap="round" stroke-linejoin="round"/>
<path d="M53.6458 27.3542H53.6679" stroke="white" stroke-width="2" stroke-linecap="round" stroke-linejoin="round"/>
</svg>
