<svg width="35" height="35" viewBox="0 0 35 35" fill="none" xmlns="http://www.w3.org/2000/svg">
<path d="M18.9583 4.375H16.0417V18.9583H18.9583V4.375ZM26.0021 7.53958L23.9312 9.61042C26.2354 11.4625 27.7083 14.3063 27.7083 17.5C27.7083 23.1438 23.1438 27.7083 17.5 27.7083C11.8563 27.7083 7.29167 23.1438 7.29167 17.5C7.29167 14.3063 8.76458 11.4625 11.0542 9.59583L8.99792 7.53958C6.16875 9.94583 4.375 13.5042 4.375 17.5C4.375 24.7479 10.2521 30.625 17.5 30.625C24.7479 30.625 30.625 24.7479 30.625 17.5C30.625 13.5042 28.8313 9.94583 26.0021 7.53958Z" fill="#168A22"/>
</svg>
