<svg width="25" height="25" viewBox="0 0 25 25" fill="none" xmlns="http://www.w3.org/2000/svg">
<path d="M12.5 2.08325C6.7604 2.08325 2.08331 6.76033 2.08331 12.4999C2.08331 18.2395 6.7604 22.9166 12.5 22.9166C18.2396 22.9166 22.9166 18.2395 22.9166 12.4999C22.9166 6.76033 18.2396 2.08325 12.5 2.08325ZM12.5 20.8333C7.90623 20.8333 4.16665 17.0937 4.16665 12.4999C4.16665 7.90617 7.90623 4.16659 12.5 4.16659C17.0937 4.16659 20.8333 7.90617 20.8333 12.4999C20.8333 17.0937 17.0937 20.8333 12.5 20.8333ZM15.625 12.4999C15.625 14.2291 14.2291 15.6249 12.5 15.6249C10.7708 15.6249 9.37498 14.2291 9.37498 12.4999C9.37498 10.7708 10.7708 9.37492 12.5 9.37492C14.2291 9.37492 15.625 10.7708 15.625 12.4999Z" fill="#FF0000"/>
</svg>
