<svg width="100" height="100" viewBox="0 0 100 100" fill="none" xmlns="http://www.w3.org/2000/svg">
<path d="M35.6253 50.0001C31.167 47.0417 26.2503 44.7084 20.917 43.2917C26.2503 44.7084 31.167 47.0417 35.6253 50.0001ZM79.0837 43.2917C73.7087 44.7084 68.7087 47.0834 64.2087 50.1251C68.7087 47.0834 73.7087 44.7084 79.0837 43.2917Z" fill="#0EA438"/>
<path d="M64.5413 40.1249C63.7913 28.4999 59.083 17.1666 50.2497 8.33325C41.333 17.2499 36.4163 28.5833 35.458 40.1249C40.7913 42.9583 45.708 46.6249 49.9997 51.0833C54.2913 46.6666 59.208 42.9999 64.5413 40.1249ZM37.458 51.1666C36.8747 50.7499 36.208 50.3749 35.583 49.9583C36.208 50.4166 36.8747 50.7499 37.458 51.1666ZM49.9997 64.3749C41.0413 50.7083 25.7497 41.6666 8.33301 41.6666C8.33301 63.8333 22.333 82.5833 41.7913 89.5416C44.4163 90.4999 47.1663 91.2083 49.9997 91.6666C52.833 91.1666 55.5413 90.4583 58.208 89.5416C77.6663 82.5833 91.6663 63.8333 91.6663 41.6666C74.2497 41.6666 58.958 50.7083 49.9997 64.3749Z" fill="#0EA438"/>
</svg>
