<svg data-v-423bf9ae="" xmlns="http://www.w3.org/2000/svg" viewBox="0 0 359 104" class="iconLeft"><!----><!----><!----><g data-v-423bf9ae="" id="2f74c8e6-fb37-468e-9076-49c338496dbb" fill="#7DE38D" transform="matrix(4.559270569581267,0,0,4.559270569581267,122.39790080459883,3.526070436761856)"><path d="M7.74 14.35L8.53 14.35L8.53 9.48L5.42 9.48L5.42 10.21L7.70 10.21L7.70 11.38C7.70 12.98 6.44 13.76 4.96 13.76C2.98 13.76 1.78 12.39 1.78 10.05L1.78 8.86C1.78 6.54 3.00 5.17 4.89 5.17C6.17 5.17 7.14 5.82 7.62 6.90L8.30 6.50C7.71 5.25 6.55 4.41 4.89 4.41C2.41 4.41 0.88 6.17 0.88 9.46C0.88 12.77 2.42 14.52 4.83 14.52C6.34 14.52 7.35 13.85 7.70 12.85L7.74 12.85ZM16.62 14.35L16.62 13.65L15.65 13.65L15.65 9.41C15.65 7.90 14.71 7.01 13.05 7.01C11.75 7.01 10.95 7.63 10.56 8.46L11.06 8.88C11.45 8.13 12.07 7.71 13.02 7.71C14.24 7.71 14.85 8.32 14.85 9.49L14.85 10.33L13.20 10.33C11.13 10.33 10.29 11.13 10.29 12.40C10.29 13.73 11.16 14.52 12.66 14.52C13.78 14.52 14.50 14.01 14.83 13.22L14.90 13.22L14.90 13.47C14.94 14 15.19 14.35 15.81 14.35ZM12.77 13.83C11.79 13.83 11.13 13.38 11.13 12.56L11.13 12.22C11.13 11.42 11.75 10.93 13.17 10.93L14.85 10.93L14.85 12.26C14.85 13.23 13.93 13.83 12.77 13.83ZM19.05 14.35L19.05 9.45C19.05 8.53 19.91 7.97 21.10 7.97L21.73 7.97L21.73 7.18L21.25 7.18C20.02 7.18 19.39 7.80 19.11 8.47L19.05 8.47L19.05 7.18L18.26 7.18L18.26 14.35ZM27.83 14.35L28.63 14.35L28.63 3.99L27.83 3.99L27.83 8.33L27.79 8.33C27.44 7.53 26.70 7.01 25.61 7.01C23.77 7.01 22.65 8.40 22.65 10.77C22.65 13.13 23.77 14.52 25.61 14.52C26.70 14.52 27.41 14 27.79 13.20L27.83 13.20ZM25.79 13.80C24.36 13.80 23.51 12.81 23.51 11.27L23.51 10.26C23.51 8.72 24.36 7.73 25.79 7.73C26.89 7.73 27.83 8.39 27.83 9.32L27.83 12.17C27.83 13.17 26.89 13.80 25.79 13.80ZM33.80 14.52C35.15 14.52 36.15 13.82 36.60 12.77L36.01 12.38C35.62 13.31 34.86 13.82 33.84 13.82C32.37 13.82 31.50 12.77 31.50 11.27L31.50 10.92L36.81 10.92L36.81 10.54C36.81 8.44 35.62 7.01 33.78 7.01C31.88 7.01 30.66 8.41 30.66 10.77C30.66 13.12 31.88 14.52 33.80 14.52ZM33.78 7.69C35.07 7.69 35.94 8.68 35.94 10.19L35.94 10.30L31.50 10.30L31.50 10.23C31.50 8.72 32.40 7.69 33.78 7.69ZM39.63 14.35L39.63 9.31C39.63 8.25 40.57 7.73 41.58 7.73C42.77 7.73 43.41 8.43 43.41 9.88L43.41 14.35L44.21 14.35L44.21 9.74C44.21 7.99 43.32 7.01 41.79 7.01C40.64 7.01 40.00 7.57 39.68 8.32L39.63 8.32L39.63 7.18L38.84 7.18L38.84 14.35ZM48.69 13.50L48.64 13.50L46.44 7.18L45.60 7.18L48.26 14.56L47.57 16.45L46.37 16.45L46.37 17.15L47.18 17.15C47.91 17.15 48.15 16.97 48.37 16.37L51.69 7.18L50.88 7.18Z"></path></g><!----><g data-v-423bf9ae="" id="5e608241-0b12-46ed-abc3-f2aedfa41f59" transform="matrix(1.0720443725585938,0,0,1.0720443725585938,-0.23168404559964983,-1.867557520781702)" stroke="none" fill="#7DE38D"><path d="M50.342 25.671c2.411-.578 15.73-4.463 5.708-17.285-3.172-4.057-6.318-6.304-6.318-6.304s-1.856 4.09-4.667 6.22c-2.78 2.104-9.275 10.455 4.432 17.218-.321.655-.579 1.225-.579 1.225s-2.556 17.946-.268 31.134c2.287 13.188 0 12.833 0 12.833s2.138.866 3.2 0c1.068-.872-3.285-38.709-1.601-44.701.032-.117.064-.229.093-.34zm-6.216-15.068c2.216-2.832 4.315-4.176 5.847-7.244 0 0 3.671 4.004 6.077 6.561 2.407 2.551 5.198 11.922-4.433 14.015 0 0-.425.463-.255-1.92 0 0 1.535-2.216 0-2.897 0 0 1.652-2.896-.334-2.046 0 0 1.272-2.594 0-2.699.08-2.492-1.055-.879-1.055-.879s-2.105.424-.058 2.471c0 0-.629 1.619 0 2.642 0 0-1.332 1.022-.54 1.875.795.853.598 3.408.598 3.408s-13.166-3.923-5.847-13.287z"></path><path d="M77.515 56.261c-.61-.329-1.219-.59-1.841-.8 3.157-1.757 5.485-3.763 6.279-5.9 2.15-5.8 10.519-15.167 10.783-15.461-4.335 2.438-14.617.557-25.886 3.369.807-1.567 1.299-3.14 1.344-4.649.178-6.152 3.588-17.067 3.588-17.067-2.283 3.302-9.498 3.179-16.134 8.6-6.632 5.422-2.562 24.22-2.562 24.22.722-4.234 2.649-8.835 2.649-8.835-1.212-4.249-.933-7.295-.563-8.954-.585 3.244.896 7.583.896 7.583s1.908-2.536 2.045-6.424c.146-3.88 1.851-8.54 1.851-8.54s-1.987 7.57.477 4.071c2.007-2.859 5.329-5.021 6.47-5.709-2.058 1.33-3.865 3.604-5.421 6.312-4.969 8.652-7.386 21.661-7.386 21.661.544-.305 1.1-.643 1.657-.996-1.899 5.854-1.787 11.771-1.787 11.771 2.409-3.879 6.794-7.786 6.794-7.786-.535-4.436.84-7.301 1.921-8.801-1.901 2.973-.982 7.567-.982 7.567s3.691-1.905 5.119-5.615c1.35-3.527 5.079-7.336 5.44-7.687-.445.567-5.132 6.58-.505 4.022 3.945-2.183 9.643-3.331 11.64-3.683-3.539.694-6.999 2.386-10.212 4.562C62.905 50.046 55.16 61.923 55.16 61.923c.393-.059.791-.125 1.199-.188-1.81 1.499-2.897 2.646-2.897 2.646 4.443-1.066 10.302-.772 10.302-.772 2.729-3.54 5.725-4.614 7.545-4.935-3.44.791-6.017 4.711-6.017 4.711s3.979 1.234 7.598-.419c3.618-1.644 9.318-1.663 9.318-1.663s-8.571 1.034-3.229 2.521c4.693 1.31 9.994 4.903 11.215 5.769-3.081-2.124-6.855-3.407-10.815-4.143-12.205-2.262-26.062.772-26.062.772a76.315 76.315 0 0 0 10.488 6.345c-2.733 1.75-8.107 2.945-14.301 2.945-5.48 0-10.324-.932-13.26-2.36a75.482 75.482 0 0 0 10.335-6.478s-13.895-2.817-26.066-.38c-3.886.772-7.596 2.099-10.62 4.21 1.438-1.037 6.485-4.511 10.994-5.841 5.315-1.568-3.271-2.471-3.271-2.471s5.701-.067 9.347 1.525c3.644 1.596 7.598.303 7.598.303s-2.629-3.886-6.083-4.62c1.828.286 4.83 1.316 7.615 4.817 0 0 5.854-.382 10.318.623 0 0-1.11-1.135-2.938-2.611.407.062.807.119 1.2.179 0 0-7.925-11.765-18.313-18.562-3.237-2.116-6.725-3.756-10.278-4.405 1.999.322 7.715 1.39 11.687 3.506 4.588 2.446.06-3.25-.531-3.979.511.485 4.155 4.143 5.53 7.564 1.478 3.691 5.207 5.544 5.207 5.544s.845-4.614-1.102-7.557c1.102 1.487 2.517 4.333 2.051 8.776 0 0 4.437 3.835 6.916 7.676 0 0 .025-5.919-1.973-11.739.569.348 1.125.675 1.679.969 0 0-2.623-12.971-7.723-21.544-1.671-2.811-3.604-5.151-5.806-6.41.687.386 4.57 2.647 6.855 5.788 2.518 3.46.414-4.077.414-4.077s1.777 4.633 1.979 8.514c.195 3.881 2.139 6.391 2.139 6.391s1.415-4.36.785-7.598c.393 1.652.722 4.7-.433 8.96 0 0 1.999 4.575 2.785 8.791 0 0 3.781-18.851-2.93-24.175-6.712-5.308-13.915-5.085-16.255-8.348.105.333 3.58 10.957 3.841 17.007.067 1.508.583 3.075 1.409 4.627-11.299-2.642-21.556-.602-25.929-2.982.263.289 8.776 9.538 11.018 15.299.825 2.131 3.186 4.096 6.364 5.807-.615.216-1.225.484-1.822.826C11.539 63.144 5.357 72.482.37 73.905c0 0 12.866.597 18.594 3.172 3.331 1.503 9.164-.04 15.194-2.89l4.28 20.586c0 2.098 4.954 3.793 11.065 3.793 6.108 0 11.062-1.695 11.062-3.793l4.489-21.604c6.347 2.997 12.579 4.654 16.033 3.036 5.685-2.662 18.542-3.454 18.542-3.454-5.006-1.351-11.332-10.591-22.114-16.49zM15.543 39.356c.084.012.191.026.321.052-.113-.018-.216-.033-.321-.052z"></path></g><!----></svg>