<svg data-v-423bf9ae="" xmlns="http://www.w3.org/2000/svg" viewBox="0 0 231.65652650939253 60" class="font"><!----><!----><!----><g data-v-423bf9ae="" id="63004cf4-835a-4434-ac40-c336883bf95c" fill="black" transform="matrix(4.559270569581267,0,0,4.559270569581267,-4.01215626327226,-18.19148937769127)"><path d="M7.74 14.35L8.53 14.35L8.53 9.48L5.42 9.48L5.42 10.21L7.70 10.21L7.70 11.38C7.70 12.98 6.44 13.76 4.96 13.76C2.98 13.76 1.78 12.39 1.78 10.05L1.78 8.86C1.78 6.54 3.00 5.17 4.89 5.17C6.17 5.17 7.14 5.82 7.62 6.90L8.30 6.50C7.71 5.25 6.55 4.41 4.89 4.41C2.41 4.41 0.88 6.17 0.88 9.46C0.88 12.77 2.42 14.52 4.83 14.52C6.34 14.52 7.35 13.85 7.70 12.85L7.74 12.85ZM16.62 14.35L16.62 13.65L15.65 13.65L15.65 9.41C15.65 7.90 14.71 7.01 13.05 7.01C11.75 7.01 10.95 7.63 10.56 8.46L11.06 8.88C11.45 8.13 12.07 7.71 13.02 7.71C14.24 7.71 14.85 8.32 14.85 9.49L14.85 10.33L13.20 10.33C11.13 10.33 10.29 11.13 10.29 12.40C10.29 13.73 11.16 14.52 12.66 14.52C13.78 14.52 14.50 14.01 14.83 13.22L14.90 13.22L14.90 13.47C14.94 14 15.19 14.35 15.81 14.35ZM12.77 13.83C11.79 13.83 11.13 13.38 11.13 12.56L11.13 12.22C11.13 11.42 11.75 10.93 13.17 10.93L14.85 10.93L14.85 12.26C14.85 13.23 13.93 13.83 12.77 13.83ZM19.05 14.35L19.05 9.45C19.05 8.53 19.91 7.97 21.10 7.97L21.73 7.97L21.73 7.18L21.25 7.18C20.02 7.18 19.39 7.80 19.11 8.47L19.05 8.47L19.05 7.18L18.26 7.18L18.26 14.35ZM27.83 14.35L28.63 14.35L28.63 3.99L27.83 3.99L27.83 8.33L27.79 8.33C27.44 7.53 26.70 7.01 25.61 7.01C23.77 7.01 22.65 8.40 22.65 10.77C22.65 13.13 23.77 14.52 25.61 14.52C26.70 14.52 27.41 14 27.79 13.20L27.83 13.20ZM25.79 13.80C24.36 13.80 23.51 12.81 23.51 11.27L23.51 10.26C23.51 8.72 24.36 7.73 25.79 7.73C26.89 7.73 27.83 8.39 27.83 9.32L27.83 12.17C27.83 13.17 26.89 13.80 25.79 13.80ZM33.80 14.52C35.15 14.52 36.15 13.82 36.60 12.77L36.01 12.38C35.62 13.31 34.86 13.82 33.84 13.82C32.37 13.82 31.50 12.77 31.50 11.27L31.50 10.92L36.81 10.92L36.81 10.54C36.81 8.44 35.62 7.01 33.78 7.01C31.88 7.01 30.66 8.41 30.66 10.77C30.66 13.12 31.88 14.52 33.80 14.52ZM33.78 7.69C35.07 7.69 35.94 8.68 35.94 10.19L35.94 10.30L31.50 10.30L31.50 10.23C31.50 8.72 32.40 7.69 33.78 7.69ZM39.63 14.35L39.63 9.31C39.63 8.25 40.57 7.73 41.58 7.73C42.77 7.73 43.41 8.43 43.41 9.88L43.41 14.35L44.21 14.35L44.21 9.74C44.21 7.99 43.32 7.01 41.79 7.01C40.64 7.01 40.00 7.57 39.68 8.32L39.63 8.32L39.63 7.18L38.84 7.18L38.84 14.35ZM48.69 13.50L48.64 13.50L46.44 7.18L45.60 7.18L48.26 14.56L47.57 16.45L46.37 16.45L46.37 17.15L47.18 17.15C47.91 17.15 48.15 16.97 48.37 16.37L51.69 7.18L50.88 7.18Z"></path></g><!----><!----></svg>